#!OML:ASF X:\für Bonn\!DataBase\2005_08_12_Daniel\c3d\Daniel.ASF
:FULLY-SPECIFIED
:DEGREES
157
root 12.0903 4.6639 -0.172363 -1084.8 -58.8209 -50.6749
lowerback 76.5021 -0.403253 9.76387
upperback 13.3182 1.88867 -6.03409
thorax -5.18046 0.2188 -11.5804
lowerneck 2.29657 8.03922 -12.4291
upperneck 7.0514 10.5017 -4.91732
head 1.48192 4.6831 0.491731
rclavicle -5.725e-014 -1.90833e-014
rhumerus -35.8783 12.4451 -91.4439
rradius 25.6118
rwrist 28.7934
rhand -18.8387 -341.282
rfingers 7.12502
rthumb 7.46085 -371.131
lclavicle -5.725e-014 -1.90833e-014
lhumerus -726.294 30.2267 -650.791
lradius 19.0336
lwrist -26.522
lhand -73.0889 300.321
lfingers 7.12502
lthumb -44.4967 324.016
rfemur 271.414 -71.4878 405.965
rtibia 140.179
rfoot 6.80713 44.4148
rtoes 19.0551
lfemur -12.8712 56.6214 24.3388
ltibia 148.048
lfoot 45.9697 -44.5266
ltoes 17.4292
158
root 12.154 4.5847 -0.114768 -1084.17 -59.7416 -51.9119
lowerback 76.5519 -0.637412 10.1273
upperback 13.3559 1.87266 -5.98002
thorax -5.10056 0.199466 -11.6477
lowerneck 2.17148 8.0105 -12.4811
upperneck 7.17295 10.4965 -5.07346
head 1.54956 4.66307 0.460638
rclavicle 0 3.18055e-015
rhumerus -35.7451 11.4723 -91.7669
rradius 24.6666
rwrist 30.4955
rhand -18.7532 -341.139
rfingers 7.12502
rthumb 7.54341 -370.985
lclavicle 0 3.18055e-015
lhumerus -727.023 30.2322 -650.445
lradius 18.9047
lwrist -26.1766
lhand -73.2901 298.86
lfingers 7.12502
lthumb -44.6841 322.483
rfemur 271.453 -70.7196 405.788
rtibia 140.158
rfoot 7.58071 43.7525
rtoes 19.1724
lfemur -10.8013 57.115 25.9415
ltibia 147.792
lfoot 46.3452 -43.903
ltoes 17.814
159
root 12.2163 4.51042 -0.0588467 -1083.47 -60.6272 -53.2033
lowerback 76.6085 -0.863842 10.4452
upperback 13.3594 1.84164 -5.89654
thorax -5.06441 0.165136 -11.6546
lowerneck 2.10722 8.00231 -12.5362
upperneck 7.28598 10.5071 -5.24705
head 1.60475 4.65097 0.42111
rclavicle 2.22639e-014 -3.81667e-014
rhumerus -35.6967 10.5655 -92.0509
rradius 23.8113
rwrist 31.9642
rhand -18.6765 -340.961
rfingers 7.12502
rthumb 7.61739 -370.804
lclavicle 2.22639e-014 -3.81667e-014
lhumerus -727.839 30.4634 -650.102
lradius 18.7689
lwrist -25.9523
lhand -73.5603 296.8
lfingers 7.12502
lthumb -44.9356 320.325
rfemur 271.492 -69.8349 405.671
rtibia 140.089
rfoot 8.37912 43.0921
rtoes 19.201
lfemur -8.74068 57.5698 27.557
ltibia 147.555
lfoot 46.4641 -43.4752
ltoes 18.0221
160
root 12.276 4.4388 -0.00516641 -1082.69 -61.4848 -54.5852
lowerback 76.7037 -1.13462 10.7876
upperback 13.3292 1.78081 -5.8658
thorax -5.06673 0.122836 -11.7225
lowerneck 2.17147 8.00312 -12.4112
upperneck 7.3392 10.5092 -5.49464
head 1.63134 4.64407 0.323765
rclavicle -3.18055e-014 5.725e-014
rhumerus -35.7198 9.49124 -92.3634
rradius 22.9985
rwrist 33.5056
rhand -18.6449 -340.787
rfingers 7.12502
rthumb 7.64793 -370.629
lclavicle -3.18055e-014 5.725e-014
lhumerus -728.696 30.8425 -649.898
lradius 18.6145
lwrist -25.8613
lhand -73.7049 294.715
lfingers 7.12502
lthumb -45.0701 318.186
rfemur 271.625 -68.846 405.545
rtibia 139.984
rfoot 9.18847 42.3834
rtoes 19.1385
lfemur -6.63196 57.9439 29.2529
ltibia 147.331
lfoot 46.4991 -43.2856
ltoes 18.0744
161
root 12.3329 4.37014 0.0463328 -1081.81 -62.2855 -56.0471
lowerback 76.7757 -1.40605 11.1166
upperback 13.29 1.71758 -5.80726
thorax -5.08198 0.0751465 -11.7499
lowerneck 2.33695 8.01313 -12.288
upperneck 7.35301 10.5021 -5.73818
head 1.62798 4.63701 0.222316
rclavicle -6.36111e-015 5.40694e-014
rhumerus -35.8037 8.35831 -92.5936
rradius 22.2451
rwrist 35.0448
rhand -18.6166 -340.543
rfingers 7.12502
rthumb 7.67526 -370.384
lclavicle -6.36111e-015 5.40694e-014
lhumerus -729.615 31.2781 -649.723
lradius 18.5029
lwrist -25.8005
lhand -73.8915 292.884
lfingers 7.12502
lthumb -45.2437 316.287
rfemur 271.735 -67.8371 405.495
rtibia 139.86
rfoot 9.99394 41.6708
rtoes 18.8621
lfemur -4.61301 58.2649 30.9232
ltibia 147.139
lfoot 46.3862 -43.4911
ltoes 17.7996
